<?xml version="1.0" encoding="UTF-8" standalone="no"?>
<!DOCTYPE svg PUBLIC "-//W3C//DTD SVG 1.1//EN"
 "http://www.w3.org/Graphics/SVG/1.1/DTD/svg11.dtd">
<!-- Generated by graphviz version 12.2.1 (20241206.2353)
 -->
<!-- Title: DAG Pages: 1 -->
<svg width="402pt" height="415pt"
 viewBox="0.00 0.00 402.24 414.95" xmlns="http://www.w3.org/2000/svg" xmlns:xlink="http://www.w3.org/1999/xlink">
<g id="graph0" class="graph" transform="scale(1 1) rotate(0) translate(4 410.95)">
<title>DAG</title>
<polygon fill="#ffffff" stroke="none" points="-4,4 -4,-410.95 398.24,-410.95 398.24,4 -4,4"/>
<!-- T0 -->
<g id="node1" class="node">
<title>T0</title>
<polygon fill="#ff9800" stroke="black" points="127.62,-406.95 73.62,-406.95 73.62,-367.45 127.62,-367.45 127.62,-406.95"/>
<text text-anchor="middle" x="100.62" y="-389.65" font-family="Arial" font-size="14.00" fill="#000000">T0</text>
<text text-anchor="middle" x="100.62" y="-373.9" font-family="Arial" font-size="14.00" fill="#000000">CUBE</text>
</g>
<!-- T1 -->
<g id="node2" class="node">
<title>T1</title>
<ellipse fill="#9c27b0" stroke="black" cx="51.62" cy="-303.52" rx="51.62" ry="27.93"/>
<text text-anchor="middle" x="51.62" y="-305.97" font-family="Arial" font-size="14.00" fill="#000000">T1</text>
<text text-anchor="middle" x="51.62" y="-290.22" font-family="Arial" font-size="14.00" fill="#000000">VECTOR</text>
</g>
<!-- T0&#45;&gt;T1 -->
<g id="edge1" class="edge">
<title>T0&#45;&gt;T1</title>
<path fill="none" stroke="#666666" d="M89.25,-367.25C84.44,-359.22 78.66,-349.59 73.09,-340.31"/>
<polygon fill="#666666" stroke="#666666" points="76.11,-338.54 67.97,-331.77 70.11,-342.15 76.11,-338.54"/>
</g>
<!-- T2 -->
<g id="node3" class="node">
<title>T2</title>
<polygon fill="#ff9800" stroke="black" points="175.62,-323.27 121.62,-323.27 121.62,-283.77 175.62,-283.77 175.62,-323.27"/>
<text text-anchor="middle" x="148.62" y="-305.97" font-family="Arial" font-size="14.00" fill="#000000">T2</text>
<text text-anchor="middle" x="148.62" y="-290.22" font-family="Arial" font-size="14.00" fill="#000000">CUBE</text>
</g>
<!-- T0&#45;&gt;T2 -->
<g id="edge2" class="edge">
<title>T0&#45;&gt;T2</title>
<path fill="none" stroke="#666666" d="M111.75,-367.25C117.65,-357.22 125.01,-344.69 131.61,-333.47"/>
<polygon fill="#666666" stroke="#666666" points="134.56,-335.34 136.61,-324.94 128.53,-331.79 134.56,-335.34"/>
</g>
<!-- T3 -->
<g id="node4" class="node">
<title>T3</title>
<ellipse fill="#9c27b0" stroke="black" cx="148.62" cy="-211.65" rx="51.62" ry="27.93"/>
<text text-anchor="middle" x="148.62" y="-214.1" font-family="Arial" font-size="14.00" fill="#000000">T3</text>
<text text-anchor="middle" x="148.62" y="-198.35" font-family="Arial" font-size="14.00" fill="#000000">VECTOR</text>
</g>
<!-- T1&#45;&gt;T3 -->
<g id="edge3" class="edge">
<title>T1&#45;&gt;T3</title>
<path fill="none" stroke="#666666" d="M77.1,-278.9C88.69,-268.17 102.55,-255.33 114.98,-243.82"/>
<polygon fill="#666666" stroke="#666666" points="117.24,-246.5 122.19,-237.13 112.48,-241.36 117.24,-246.5"/>
</g>
<!-- T4 -->
<g id="node5" class="node">
<title>T4</title>
<polygon fill="#ff9800" stroke="black" points="78.62,-231.4 24.62,-231.4 24.62,-191.9 78.62,-191.9 78.62,-231.4"/>
<text text-anchor="middle" x="51.62" y="-214.1" font-family="Arial" font-size="14.00" fill="#000000">T4</text>
<text text-anchor="middle" x="51.62" y="-198.35" font-family="Arial" font-size="14.00" fill="#000000">CUBE</text>
</g>
<!-- T1&#45;&gt;T4 -->
<g id="edge4" class="edge">
<title>T1&#45;&gt;T4</title>
<path fill="none" stroke="#666666" d="M51.62,-275.55C51.62,-265.34 51.62,-253.64 51.62,-243.12"/>
<polygon fill="#666666" stroke="#666666" points="55.12,-243.4 51.62,-233.4 48.12,-243.4 55.12,-243.4"/>
</g>
<!-- T2&#45;&gt;T3 -->
<g id="edge5" class="edge">
<title>T2&#45;&gt;T3</title>
<path fill="none" stroke="#666666" d="M148.62,-283.46C148.62,-274.05 148.62,-262.35 148.62,-251.19"/>
<polygon fill="#666666" stroke="#666666" points="152.12,-251.38 148.62,-241.38 145.12,-251.38 152.12,-251.38"/>
</g>
<!-- T2&#45;&gt;T4 -->
<g id="edge6" class="edge">
<title>T2&#45;&gt;T4</title>
<path fill="none" stroke="#666666" d="M128.05,-283.46C114.16,-270.59 95.63,-253.43 80.3,-239.22"/>
<polygon fill="#666666" stroke="#666666" points="82.99,-236.94 73.27,-232.71 78.23,-242.08 82.99,-236.94"/>
</g>
<!-- T12 -->
<g id="node13" class="node">
<title>T12</title>
<polygon fill="#ff9800" stroke="black" points="272.62,-231.4 218.62,-231.4 218.62,-191.9 272.62,-191.9 272.62,-231.4"/>
<text text-anchor="middle" x="245.62" y="-214.1" font-family="Arial" font-size="14.00" fill="#000000">T12</text>
<text text-anchor="middle" x="245.62" y="-198.35" font-family="Arial" font-size="14.00" fill="#000000">CUBE</text>
</g>
<!-- T2&#45;&gt;T12 -->
<g id="edge7" class="edge">
<title>T2&#45;&gt;T12</title>
<path fill="none" stroke="#666666" d="M169.19,-283.46C183.08,-270.59 201.6,-253.43 216.94,-239.22"/>
<polygon fill="#666666" stroke="#666666" points="219.01,-242.08 223.97,-232.71 214.25,-236.94 219.01,-242.08"/>
</g>
<!-- T5 -->
<g id="node6" class="node">
<title>T5</title>
<ellipse fill="#9c27b0" stroke="black" cx="51.62" cy="-119.79" rx="51.62" ry="27.93"/>
<text text-anchor="middle" x="51.62" y="-122.24" font-family="Arial" font-size="14.00" fill="#000000">T5</text>
<text text-anchor="middle" x="51.62" y="-106.49" font-family="Arial" font-size="14.00" fill="#000000">VECTOR</text>
</g>
<!-- T3&#45;&gt;T5 -->
<g id="edge8" class="edge">
<title>T3&#45;&gt;T5</title>
<path fill="none" stroke="#666666" d="M123.13,-187.04C111.55,-176.31 97.68,-163.47 85.26,-151.96"/>
<polygon fill="#666666" stroke="#666666" points="87.76,-149.5 78.04,-145.27 83,-154.64 87.76,-149.5"/>
</g>
<!-- T6 -->
<g id="node7" class="node">
<title>T6</title>
<polygon fill="#ff9800" stroke="black" points="175.62,-139.54 121.62,-139.54 121.62,-100.04 175.62,-100.04 175.62,-139.54"/>
<text text-anchor="middle" x="148.62" y="-122.24" font-family="Arial" font-size="14.00" fill="#000000">T6</text>
<text text-anchor="middle" x="148.62" y="-106.49" font-family="Arial" font-size="14.00" fill="#000000">CUBE</text>
</g>
<!-- T3&#45;&gt;T6 -->
<g id="edge9" class="edge">
<title>T3&#45;&gt;T6</title>
<path fill="none" stroke="#666666" d="M148.62,-183.69C148.62,-173.48 148.62,-161.77 148.62,-151.26"/>
<polygon fill="#666666" stroke="#666666" points="152.12,-151.54 148.62,-141.54 145.12,-151.54 152.12,-151.54"/>
</g>
<!-- T14 -->
<g id="node15" class="node">
<title>T14</title>
<polygon fill="#ff9800" stroke="black" points="259.62,-139.54 205.62,-139.54 205.62,-100.04 259.62,-100.04 259.62,-139.54"/>
<text text-anchor="middle" x="232.62" y="-122.24" font-family="Arial" font-size="14.00" fill="#000000">T14</text>
<text text-anchor="middle" x="232.62" y="-106.49" font-family="Arial" font-size="14.00" fill="#000000">CUBE</text>
</g>
<!-- T3&#45;&gt;T14 -->
<g id="edge10" class="edge">
<title>T3&#45;&gt;T14</title>
<path fill="none" stroke="#666666" d="M171.13,-186.57C182.26,-174.66 195.75,-160.24 207.25,-147.93"/>
<polygon fill="#666666" stroke="#666666" points="209.53,-150.61 213.8,-140.92 204.42,-145.83 209.53,-150.61"/>
</g>
<!-- T4&#45;&gt;T5 -->
<g id="edge11" class="edge">
<title>T4&#45;&gt;T5</title>
<path fill="none" stroke="#666666" d="M51.62,-191.6C51.62,-182.19 51.62,-170.49 51.62,-159.33"/>
<polygon fill="#666666" stroke="#666666" points="55.12,-159.52 51.62,-149.52 48.12,-159.52 55.12,-159.52"/>
</g>
<!-- T4&#45;&gt;T6 -->
<g id="edge12" class="edge">
<title>T4&#45;&gt;T6</title>
<path fill="none" stroke="#666666" d="M72.19,-191.6C86.08,-178.73 104.6,-161.57 119.94,-147.36"/>
<polygon fill="#666666" stroke="#666666" points="122.01,-150.21 126.97,-140.85 117.25,-145.08 122.01,-150.21"/>
</g>
<!-- T7 -->
<g id="node8" class="node">
<title>T7</title>
<ellipse fill="#9c27b0" stroke="black" cx="117.62" cy="-27.93" rx="51.62" ry="27.93"/>
<text text-anchor="middle" x="117.62" y="-30.38" font-family="Arial" font-size="14.00" fill="#000000">T7</text>
<text text-anchor="middle" x="117.62" y="-14.63" font-family="Arial" font-size="14.00" fill="#000000">VECTOR</text>
</g>
<!-- T5&#45;&gt;T7 -->
<g id="edge13" class="edge">
<title>T5&#45;&gt;T7</title>
<path fill="none" stroke="#666666" d="M70.36,-93.28C77.17,-84 84.99,-73.35 92.28,-63.42"/>
<polygon fill="#666666" stroke="#666666" points="95.07,-65.55 98.17,-55.41 89.43,-61.4 95.07,-65.55"/>
</g>
<!-- T6&#45;&gt;T7 -->
<g id="edge14" class="edge">
<title>T6&#45;&gt;T7</title>
<path fill="none" stroke="#666666" d="M142.04,-99.73C138.7,-90.05 134.53,-77.94 130.57,-66.48"/>
<polygon fill="#666666" stroke="#666666" points="133.95,-65.54 127.38,-57.23 127.33,-67.83 133.95,-65.54"/>
</g>
<!-- T8 -->
<g id="node9" class="node">
<title>T8</title>
<polygon fill="#ff9800" stroke="black" points="320.62,-406.95 266.62,-406.95 266.62,-367.45 320.62,-367.45 320.62,-406.95"/>
<text text-anchor="middle" x="293.62" y="-389.65" font-family="Arial" font-size="14.00" fill="#000000">T8</text>
<text text-anchor="middle" x="293.62" y="-373.9" font-family="Arial" font-size="14.00" fill="#000000">CUBE</text>
</g>
<!-- T9 -->
<g id="node10" class="node">
<title>T9</title>
<ellipse fill="#9c27b0" stroke="black" cx="245.62" cy="-303.52" rx="51.62" ry="27.93"/>
<text text-anchor="middle" x="245.62" y="-305.97" font-family="Arial" font-size="14.00" fill="#000000">T9</text>
<text text-anchor="middle" x="245.62" y="-290.22" font-family="Arial" font-size="14.00" fill="#000000">VECTOR</text>
</g>
<!-- T8&#45;&gt;T9 -->
<g id="edge15" class="edge">
<title>T8&#45;&gt;T9</title>
<path fill="none" stroke="#666666" d="M282.49,-367.25C277.77,-359.22 272.11,-349.59 266.65,-340.31"/>
<polygon fill="#666666" stroke="#666666" points="269.72,-338.62 261.64,-331.78 263.69,-342.17 269.72,-338.62"/>
</g>
<!-- T10 -->
<g id="node11" class="node">
<title>T10</title>
<polygon fill="#ff9800" stroke="black" points="369.62,-323.27 315.62,-323.27 315.62,-283.77 369.62,-283.77 369.62,-323.27"/>
<text text-anchor="middle" x="342.62" y="-305.97" font-family="Arial" font-size="14.00" fill="#000000">T10</text>
<text text-anchor="middle" x="342.62" y="-290.22" font-family="Arial" font-size="14.00" fill="#000000">CUBE</text>
</g>
<!-- T8&#45;&gt;T10 -->
<g id="edge16" class="edge">
<title>T8&#45;&gt;T10</title>
<path fill="none" stroke="#666666" d="M304.98,-367.25C311,-357.22 318.52,-344.69 325.25,-333.47"/>
<polygon fill="#666666" stroke="#666666" points="328.22,-335.31 330.37,-324.94 322.22,-331.71 328.22,-335.31"/>
</g>
<!-- T11 -->
<g id="node12" class="node">
<title>T11</title>
<ellipse fill="#9c27b0" stroke="black" cx="342.62" cy="-211.65" rx="51.62" ry="27.93"/>
<text text-anchor="middle" x="342.62" y="-214.1" font-family="Arial" font-size="14.00" fill="#000000">T11</text>
<text text-anchor="middle" x="342.62" y="-198.35" font-family="Arial" font-size="14.00" fill="#000000">VECTOR</text>
</g>
<!-- T9&#45;&gt;T11 -->
<g id="edge17" class="edge">
<title>T9&#45;&gt;T11</title>
<path fill="none" stroke="#666666" d="M271.1,-278.9C282.69,-268.17 296.55,-255.33 308.98,-243.82"/>
<polygon fill="#666666" stroke="#666666" points="311.24,-246.5 316.19,-237.13 306.48,-241.36 311.24,-246.5"/>
</g>
<!-- T9&#45;&gt;T12 -->
<g id="edge18" class="edge">
<title>T9&#45;&gt;T12</title>
<path fill="none" stroke="#666666" d="M245.62,-275.55C245.62,-265.34 245.62,-253.64 245.62,-243.12"/>
<polygon fill="#666666" stroke="#666666" points="249.12,-243.4 245.62,-233.4 242.12,-243.4 249.12,-243.4"/>
</g>
<!-- T10&#45;&gt;T11 -->
<g id="edge19" class="edge">
<title>T10&#45;&gt;T11</title>
<path fill="none" stroke="#666666" d="M342.62,-283.46C342.62,-274.05 342.62,-262.35 342.62,-251.19"/>
<polygon fill="#666666" stroke="#666666" points="346.12,-251.38 342.62,-241.38 339.12,-251.38 346.12,-251.38"/>
</g>
<!-- T13 -->
<g id="node14" class="node">
<title>T13</title>
<ellipse fill="#9c27b0" stroke="black" cx="329.62" cy="-119.79" rx="51.62" ry="27.93"/>
<text text-anchor="middle" x="329.62" y="-122.24" font-family="Arial" font-size="14.00" fill="#000000">T13</text>
<text text-anchor="middle" x="329.62" y="-106.49" font-family="Arial" font-size="14.00" fill="#000000">VECTOR</text>
</g>
<!-- T11&#45;&gt;T13 -->
<g id="edge20" class="edge">
<title>T11&#45;&gt;T13</title>
<path fill="none" stroke="#666666" d="M338.72,-183.69C337.61,-176.03 336.38,-167.54 335.19,-159.33"/>
<polygon fill="#666666" stroke="#666666" points="338.67,-158.94 333.78,-149.54 331.75,-159.94 338.67,-158.94"/>
</g>
<!-- T12&#45;&gt;T13 -->
<g id="edge21" class="edge">
<title>T12&#45;&gt;T13</title>
<path fill="none" stroke="#666666" d="M263.43,-191.6C273.78,-180.52 287.11,-166.27 299.08,-153.46"/>
<polygon fill="#666666" stroke="#666666" points="301.41,-156.1 305.68,-146.4 296.29,-151.32 301.41,-156.1"/>
</g>
<!-- T12&#45;&gt;T14 -->
<g id="edge22" class="edge">
<title>T12&#45;&gt;T14</title>
<path fill="none" stroke="#666666" d="M242.86,-191.6C241.16,-179.8 238.93,-164.4 236.98,-150.97"/>
<polygon fill="#666666" stroke="#666666" points="240.48,-150.72 235.59,-141.32 233.56,-151.72 240.48,-150.72"/>
</g>
<!-- T15 -->
<g id="node16" class="node">
<title>T15</title>
<ellipse fill="#9c27b0" stroke="black" cx="262.62" cy="-27.93" rx="51.62" ry="27.93"/>
<text text-anchor="middle" x="262.62" y="-30.38" font-family="Arial" font-size="14.00" fill="#000000">T15</text>
<text text-anchor="middle" x="262.62" y="-14.63" font-family="Arial" font-size="14.00" fill="#000000">VECTOR</text>
</g>
<!-- T13&#45;&gt;T15 -->
<g id="edge23" class="edge">
<title>T13&#45;&gt;T15</title>
<path fill="none" stroke="#666666" d="M310.96,-93.76C303.9,-84.3 295.74,-73.36 288.16,-63.19"/>
<polygon fill="#666666" stroke="#666666" points="291.1,-61.28 282.32,-55.35 285.49,-65.46 291.1,-61.28"/>
</g>
<!-- T14&#45;&gt;T15 -->
<g id="edge24" class="edge">
<title>T14&#45;&gt;T15</title>
<path fill="none" stroke="#666666" d="M238.98,-99.73C242.21,-90.05 246.26,-77.94 250.08,-66.48"/>
<polygon fill="#666666" stroke="#666666" points="253.32,-67.83 253.17,-57.24 246.68,-65.61 253.32,-67.83"/>
</g>
</g>
</svg>
