<svg xmlns="http://www.w3.org/2000/svg" viewBox="0 0 1400 210" width="100%" height="100%">
<style>
  text { font-family: Arial, sans-serif; font-size: 14px; }
  .core-label { font-weight: bold; font-size: 18px; }
  .task-label { font-size: 13px; fill: #fff; font-weight: bold; }
  .task-label-dark { font-size: 13px; fill: #000; font-weight: bold; }
  .axis-label { font-size: 12px; fill: #555; }
  .grid-line { stroke: #e0e0e0; stroke-width: 0.5; }
</style>
<rect width="1400" height="210" fill="#ffffff"/>
<text x="700.0" y="30" text-anchor="middle" font-size="16" font-weight="bold" fill="#333">Task Execution Swimlane</text>
<rect x="120" y="90" width="1240" height="80" fill="#f5f5f5" stroke="#ccc" stroke-width="0.5"/>
<text x="110" y="134.0" text-anchor="end" class="core-label" fill="#333">Core 0</text>
<rect x="120" y="108.0" width="40" height="44" rx="3" ry="3" fill="#4caf50" stroke="#fff" stroke-width="1" opacity="0.85"/>
<text x="140.0" y="134.0" text-anchor="middle" class="task-label-dark">T0 CUBE</text>
<rect x="200" y="108.0" width="40" height="44" rx="3" ry="3" fill="#ff9800" stroke="#fff" stroke-width="1" opacity="0.85"/>
<text x="220.0" y="134.0" text-anchor="middle" class="task-label">T2 CUBE</text>
<rect x="280" y="108.0" width="40" height="44" rx="3" ry="3" fill="#2196f3" stroke="#fff" stroke-width="1" opacity="0.85"/>
<text x="300.0" y="134.0" text-anchor="middle" class="task-label">T1 VECTOR</text>
<rect x="360" y="108.0" width="40" height="44" rx="3" ry="3" fill="#00bcd4" stroke="#fff" stroke-width="1" opacity="0.85"/>
<text x="380.0" y="134.0" text-anchor="middle" class="task-label">T4 CUBE</text>
<rect x="440" y="108.0" width="40" height="44" rx="3" ry="3" fill="#9c27b0" stroke="#fff" stroke-width="1" opacity="0.85"/>
<text x="460.0" y="134.0" text-anchor="middle" class="task-label">T3 VECTOR</text>
<rect x="520" y="108.0" width="40" height="44" rx="3" ry="3" fill="#009688" stroke="#fff" stroke-width="1" opacity="0.85"/>
<text x="540.0" y="134.0" text-anchor="middle" class="task-label">T8 CUBE</text>
<rect x="600" y="108.0" width="40" height="44" rx="3" ry="3" fill="#607d8b" stroke="#fff" stroke-width="1" opacity="0.85"/>
<text x="620.0" y="134.0" text-anchor="middle" class="task-label">T10 CUBE</text>
<rect x="680" y="108.0" width="40" height="44" rx="3" ry="3" fill="#795548" stroke="#fff" stroke-width="1" opacity="0.85"/>
<text x="700.0" y="134.0" text-anchor="middle" class="task-label">T9 VECTOR</text>
<rect x="760" y="108.0" width="40" height="44" rx="3" ry="3" fill="#3f51b5" stroke="#fff" stroke-width="1" opacity="0.85"/>
<text x="780.0" y="134.0" text-anchor="middle" class="task-label">T6 CUBE</text>
<rect x="840" y="108.0" width="40" height="44" rx="3" ry="3" fill="#e91e63" stroke="#fff" stroke-width="1" opacity="0.85"/>
<text x="860.0" y="134.0" text-anchor="middle" class="task-label">T5 VECTOR</text>
<rect x="920" y="108.0" width="40" height="44" rx="3" ry="3" fill="#ff5722" stroke="#fff" stroke-width="1" opacity="0.85"/>
<text x="940.0" y="134.0" text-anchor="middle" class="task-label">T7 VECTOR</text>
<rect x="1000" y="108.0" width="40" height="44" rx="3" ry="3" fill="#8bc34a" stroke="#fff" stroke-width="1" opacity="0.85"/>
<text x="1020.0" y="134.0" text-anchor="middle" class="task-label-dark">T12 CUBE</text>
<rect x="1080" y="108.0" width="40" height="44" rx="3" ry="3" fill="#f44336" stroke="#fff" stroke-width="1" opacity="0.85"/>
<text x="1100.0" y="134.0" text-anchor="middle" class="task-label">T11 VECTOR</text>
<rect x="1160" y="108.0" width="40" height="44" rx="3" ry="3" fill="#ffeb3b" stroke="#fff" stroke-width="1" opacity="0.85"/>
<text x="1180.0" y="134.0" text-anchor="middle" class="task-label-dark">T14 CUBE</text>
<rect x="1240" y="108.0" width="40" height="44" rx="3" ry="3" fill="#03a9f4" stroke="#fff" stroke-width="1" opacity="0.85"/>
<text x="1260.0" y="134.0" text-anchor="middle" class="task-label-dark">T13 VECTOR</text>
<rect x="1320" y="108.0" width="40" height="44" rx="3" ry="3" fill="#4caf50" stroke="#fff" stroke-width="1" opacity="0.85"/>
<text x="1340.0" y="134.0" text-anchor="middle" class="task-label-dark">T15 VECTOR</text>
<text x="120" y="192" font-size="10" fill="#888">X-axis: event sequence number (no real timestamps available)</text>
</svg>